<svg xmlns="http://www.w3.org/2000/svg" width="214" height="26" viewBox="0 0 214 26" fill="none">
    <g clip-path="url(#clip0_110_2)">
        <path d="M24.7661 26C28.1623 26 30.9737 23.7425 30.3452 21.0288C29.9511 19.3274 29.3548 17.6594 28.5622 16.0502C27.0085 12.8958 24.7314 10.0295 21.8606 7.61523C18.9898 5.20091 15.5817 3.28576 11.8309 1.97914C9.97908 1.33407 8.06166 0.843552 6.10624 0.51221C2.78143 -0.051168 0 2.23859 0 5.00001V21C0 23.7614 2.7532 26 6.14942 26H24.7661Z" fill="#615DFF"/>
        <g style="mix-blend-mode:multiply">
            <path d="M16.851 26C13.4548 26 10.6434 23.7425 11.2719 21.0288C11.666 19.3274 12.2623 17.6594 13.0549 16.0502C14.6086 12.8958 16.8857 10.0295 19.7565 7.61523C22.6273 5.20091 26.0354 3.28576 29.7862 1.97914C31.6381 1.33407 33.5554 0.843552 35.5108 0.51221C38.8357 -0.051168 41.6171 2.23859 41.6171 5.00001V21C41.6171 23.7614 38.8639 26 35.4677 26H16.851Z" fill="#3DD9EB"/>
        </g>
        <!-- <path d="M51.5793 23V5.54545H57.4771C58.8407 5.54545 59.96 5.77841 60.835 6.24432C61.71 6.70454 62.3577 7.33807 62.7782 8.14489C63.1987 8.9517 63.4089 9.86932 63.4089 10.8977C63.4089 11.9261 63.1987 12.8381 62.7782 13.6335C62.3577 14.429 61.7129 15.054 60.8435 15.5085C59.9742 15.9574 58.8634 16.1818 57.5112 16.1818H52.7384V14.2727H57.443C58.3748 14.2727 59.1248 14.1364 59.693 13.8636C60.2668 13.5909 60.6816 13.2045 60.9373 12.7045C61.1987 12.1989 61.3293 11.5966 61.3293 10.8977C61.3293 10.1989 61.1987 9.58807 60.9373 9.06534C60.6759 8.54261 60.2583 8.1392 59.6844 7.85511C59.1106 7.56534 58.3521 7.42045 57.4089 7.42045H53.693V23H51.5793ZM59.7952 15.1591L64.0907 23H61.6362L57.4089 15.1591H59.7952ZM72.0062 23.2727C70.7448 23.2727 69.6567 22.9943 68.742 22.4375C67.8329 21.875 67.1312 21.0909 66.6369 20.0852C66.1482 19.0739 65.9039 17.8977 65.9039 16.5568C65.9039 15.2159 66.1482 14.0341 66.6369 13.0114C67.1312 11.983 67.8187 11.1818 68.6994 10.608C69.5857 10.0284 70.6198 9.73864 71.8016 9.73864C72.4835 9.73864 73.1567 9.85227 73.8215 10.0795C74.4863 10.3068 75.0914 10.6761 75.6369 11.1875C76.1823 11.6932 76.617 12.3636 76.9408 13.1989C77.2647 14.0341 77.4266 15.0625 77.4266 16.2841V17.1364H67.3357V15.3977H75.3812C75.3812 14.6591 75.2335 14 74.938 13.4205C74.6482 12.8409 74.2335 12.3835 73.6937 12.0483C73.1596 11.7131 72.5289 11.5455 71.8016 11.5455C71.0005 11.5455 70.3073 11.7443 69.7221 12.142C69.1425 12.5341 68.6965 13.0455 68.384 13.6761C68.0715 14.3068 67.9153 14.983 67.9153 15.7045V16.8636C67.9153 17.8523 68.0857 18.6903 68.4266 19.3778C68.7732 20.0597 69.2533 20.5795 69.867 20.9375C70.4806 21.2898 71.1937 21.4659 72.0062 21.4659C72.5346 21.4659 73.0119 21.392 73.438 21.2443C73.8698 21.0909 74.242 20.8636 74.5545 20.5625C74.867 20.2557 75.1085 19.875 75.2789 19.4205L77.2221 19.9659C77.0175 20.625 76.6738 21.2045 76.1908 21.7045C75.7079 22.1989 75.1113 22.5852 74.4011 22.8636C73.6908 23.1364 72.8925 23.2727 72.0062 23.2727ZM80.4863 27.9091V9.90909H82.4295V11.9886H82.6681C82.8158 11.7614 83.0204 11.4716 83.2817 11.1193C83.5488 10.7614 83.9295 10.4432 84.4238 10.1648C84.9238 9.88068 85.5999 9.73864 86.4522 9.73864C87.5545 9.73864 88.5261 10.0142 89.367 10.5653C90.2079 11.1165 90.8641 11.8977 91.3357 12.9091C91.8073 13.9205 92.0431 15.1136 92.0431 16.4886C92.0431 17.875 91.8073 19.0767 91.3357 20.0938C90.8641 21.1051 90.2107 21.8892 89.3755 22.446C88.5403 22.9972 87.5772 23.2727 86.4863 23.2727C85.6454 23.2727 84.9721 23.1335 84.4664 22.8551C83.9607 22.571 83.5715 22.25 83.2988 21.892C83.0261 21.5284 82.8158 21.2273 82.6681 20.9886H82.4977V27.9091H80.4863ZM82.4636 16.4545C82.4636 17.4432 82.6085 18.3153 82.8982 19.071C83.188 19.821 83.6113 20.4091 84.1681 20.8352C84.7249 21.2557 85.4067 21.4659 86.2136 21.4659C87.0545 21.4659 87.7562 21.2443 88.3187 20.8011C88.8869 20.3523 89.313 19.75 89.5971 18.9943C89.8869 18.233 90.0317 17.3864 90.0317 16.4545C90.0317 15.5341 89.8897 14.7045 89.6056 13.9659C89.3272 13.2216 88.9039 12.6335 88.3357 12.2017C87.7732 11.7642 87.0658 11.5455 86.2136 11.5455C85.3954 11.5455 84.7079 11.7528 84.1511 12.1676C83.5942 12.5767 83.1738 13.1506 82.8897 13.8892C82.6056 14.6222 82.4636 15.4773 82.4636 16.4545ZM103.361 17.6477V9.90909H105.373V23H103.361V20.7841H103.225C102.918 21.4489 102.441 22.0142 101.793 22.4801C101.145 22.9403 100.327 23.1705 99.3386 23.1705C98.5204 23.1705 97.7931 22.9915 97.1567 22.6335C96.5204 22.2699 96.0204 21.7244 95.6567 20.9972C95.2931 20.2642 95.1113 19.3409 95.1113 18.2273V9.90909H97.1227V18.0909C97.1227 19.0455 97.3897 19.8068 97.9238 20.375C98.4636 20.9432 99.1511 21.2273 99.9863 21.2273C100.486 21.2273 100.995 21.0994 101.512 20.8438C102.035 20.5881 102.472 20.196 102.824 19.6676C103.182 19.1392 103.361 18.4659 103.361 17.6477ZM114.75 9.90909V11.6136H107.966V9.90909H114.75ZM109.943 6.77273H111.954V19.25C111.954 19.8182 112.037 20.2443 112.201 20.5284C112.372 20.8068 112.588 20.9943 112.849 21.0909C113.116 21.1818 113.398 21.2273 113.693 21.2273C113.915 21.2273 114.096 21.2159 114.238 21.1932C114.38 21.1648 114.494 21.142 114.579 21.125L114.988 22.9318C114.852 22.983 114.662 23.0341 114.417 23.0852C114.173 23.142 113.863 23.1705 113.488 23.1705C112.92 23.1705 112.363 23.0483 111.818 22.804C111.278 22.5597 110.829 22.1875 110.471 21.6875C110.119 21.1875 109.943 20.5568 109.943 19.7955V6.77273ZM121.628 23.3068C120.798 23.3068 120.045 23.1506 119.369 22.8381C118.693 22.5199 118.156 22.0625 117.758 21.4659C117.361 20.8636 117.162 20.1364 117.162 19.2841C117.162 18.5341 117.309 17.9261 117.605 17.4602C117.9 16.9886 118.295 16.6193 118.79 16.3523C119.284 16.0852 119.829 15.8864 120.426 15.7557C121.028 15.6193 121.633 15.5114 122.241 15.4318C123.037 15.3295 123.682 15.2528 124.176 15.2017C124.676 15.1449 125.04 15.0511 125.267 14.9205C125.5 14.7898 125.616 14.5625 125.616 14.2386V14.1705C125.616 13.3295 125.386 12.6761 124.926 12.2102C124.471 11.7443 123.781 11.5114 122.855 11.5114C121.895 11.5114 121.142 11.7216 120.596 12.142C120.051 12.5625 119.667 13.0114 119.446 13.4886L117.537 12.8068C117.878 12.0114 118.332 11.392 118.9 10.9489C119.474 10.5 120.099 10.1875 120.775 10.0114C121.457 9.82955 122.128 9.73864 122.787 9.73864C123.207 9.73864 123.69 9.78977 124.236 9.89204C124.787 9.98864 125.318 10.1903 125.829 10.4972C126.346 10.804 126.775 11.267 127.116 11.8864C127.457 12.5057 127.628 13.3352 127.628 14.375V23H125.616V21.2273H125.514C125.378 21.5114 125.15 21.8153 124.832 22.1392C124.514 22.4631 124.091 22.7386 123.562 22.9659C123.034 23.1932 122.389 23.3068 121.628 23.3068ZM121.934 21.5C122.73 21.5 123.4 21.3438 123.946 21.0312C124.497 20.7188 124.912 20.3153 125.19 19.821C125.474 19.3267 125.616 18.8068 125.616 18.2614V16.4205C125.531 16.5227 125.344 16.6165 125.054 16.7017C124.77 16.7812 124.44 16.8523 124.065 16.9148C123.696 16.9716 123.335 17.0227 122.983 17.0682C122.636 17.108 122.355 17.142 122.139 17.1705C121.616 17.2386 121.128 17.3494 120.673 17.5028C120.224 17.6506 119.861 17.875 119.582 18.1761C119.309 18.4716 119.173 18.875 119.173 19.3864C119.173 20.0852 119.432 20.6136 119.949 20.9716C120.471 21.3239 121.133 21.5 121.934 21.5ZM136.992 9.90909V11.6136H130.208V9.90909H136.992ZM132.185 6.77273H134.197V19.25C134.197 19.8182 134.279 20.2443 134.444 20.5284C134.614 20.8068 134.83 20.9943 135.091 21.0909C135.358 21.1818 135.64 21.2273 135.935 21.2273C136.157 21.2273 136.339 21.2159 136.481 21.1932C136.623 21.1648 136.736 21.142 136.822 21.125L137.231 22.9318C137.094 22.983 136.904 23.0341 136.66 23.0852C136.415 23.142 136.106 23.1705 135.731 23.1705C135.162 23.1705 134.606 23.0483 134.06 22.804C133.52 22.5597 133.072 22.1875 132.714 21.6875C132.361 21.1875 132.185 20.5568 132.185 19.7955V6.77273ZM140.018 23V9.90909H142.029V23H140.018ZM141.04 7.72727C140.648 7.72727 140.31 7.59375 140.026 7.3267C139.748 7.05966 139.608 6.73864 139.608 6.36364C139.608 5.98864 139.748 5.66761 140.026 5.40057C140.31 5.13352 140.648 5 141.04 5C141.432 5 141.768 5.13352 142.046 5.40057C142.33 5.66761 142.472 5.98864 142.472 6.36364C142.472 6.73864 142.33 7.05966 142.046 7.3267C141.768 7.59375 141.432 7.72727 141.04 7.72727ZM151.031 23.2727C149.849 23.2727 148.812 22.9915 147.92 22.429C147.034 21.8665 146.341 21.0795 145.841 20.0682C145.346 19.0568 145.099 17.875 145.099 16.5227C145.099 15.1591 145.346 13.9687 145.841 12.9517C146.341 11.9347 147.034 11.1449 147.92 10.5824C148.812 10.0199 149.849 9.73864 151.031 9.73864C152.213 9.73864 153.247 10.0199 154.133 10.5824C155.025 11.1449 155.719 11.9347 156.213 12.9517C156.713 13.9687 156.963 15.1591 156.963 16.5227C156.963 17.875 156.713 19.0568 156.213 20.0682C155.719 21.0795 155.025 21.8665 154.133 22.429C153.247 22.9915 152.213 23.2727 151.031 23.2727ZM151.031 21.4659C151.929 21.4659 152.667 21.2358 153.247 20.7756C153.826 20.3153 154.255 19.7102 154.534 18.9602C154.812 18.2102 154.951 17.3977 154.951 16.5227C154.951 15.6477 154.812 14.8324 154.534 14.0767C154.255 13.321 153.826 12.7102 153.247 12.2443C152.667 11.7784 151.929 11.5455 151.031 11.5455C150.133 11.5455 149.395 11.7784 148.815 12.2443C148.236 12.7102 147.807 13.321 147.528 14.0767C147.25 14.8324 147.111 15.6477 147.111 16.5227C147.111 17.3977 147.25 18.2102 147.528 18.9602C147.807 19.7102 148.236 20.3153 148.815 20.7756C149.395 21.2358 150.133 21.4659 151.031 21.4659ZM162.045 15.125V23H160.033V9.90909H161.976V11.9545H162.147C162.454 11.2898 162.92 10.7557 163.545 10.3523C164.17 9.94318 164.976 9.73864 165.965 9.73864C166.851 9.73864 167.627 9.92045 168.292 10.2841C168.956 10.642 169.474 11.1875 169.843 11.9205C170.212 12.6477 170.397 13.5682 170.397 14.6818V23H168.385V14.8182C168.385 13.7898 168.118 12.9886 167.584 12.4148C167.05 11.8352 166.317 11.5455 165.385 11.5455C164.743 11.5455 164.17 11.6847 163.664 11.9631C163.164 12.2415 162.769 12.6477 162.479 13.1818C162.189 13.7159 162.045 14.3636 162.045 15.125ZM173.748 5.54545H178.3L183.106 17.2727H183.311L188.118 5.54545H192.669V23H189.089V11.6392H188.944L184.427 22.9148H181.99L177.473 11.5966H177.328V23H173.748V5.54545ZM201.897 23H195.709V5.54545H201.948C203.704 5.54545 205.215 5.89489 206.482 6.59375C207.749 7.28693 208.724 8.28409 209.405 9.58523C210.093 10.8864 210.437 12.4432 210.437 14.2557C210.437 16.0739 210.093 17.6364 209.405 18.9432C208.724 20.25 207.743 21.2528 206.465 21.9517C205.192 22.6506 203.67 23 201.897 23ZM199.4 19.8381H201.743C202.834 19.8381 203.752 19.6449 204.496 19.2585C205.246 18.8665 205.809 18.2614 206.184 17.4432C206.564 16.6193 206.755 15.5568 206.755 14.2557C206.755 12.9659 206.564 11.9119 206.184 11.0938C205.809 10.2756 205.249 9.6733 204.505 9.28693C203.76 8.90057 202.843 8.70739 201.752 8.70739H199.4V19.8381Z" fill="#425974"/> -->
    </g>
    <defs>
        <clipPath id="clip0_110_2">
            <rect width="214" height="26" fill="white"/>
        </clipPath>
    </defs>
</svg>
